<?xml version="1.0" encoding="utf-8"?>
<!-- Generator: Adobe Illustrator 19.2.1, SVG Export Plug-In . SVG Version: 6.00 Build 0)  -->
<svg version="1.1" id="Layer_1" xmlns="http://www.w3.org/2000/svg" xmlns:xlink="http://www.w3.org/1999/xlink" x="0px" y="0px"
	 viewBox="0 0 636.8 392.7" style="enable-background:new 0 0 636.8 392.7;" xml:space="preserve">
<style type="text/css">
	.st0{fill:#0090D7;}
</style>
<g>
	<path class="st0" d="M479.2,0c-87.1,0-157.6,70.6-157.6,157.6s70.6,157.6,157.6,157.6s157.6-70.6,157.6-157.6S566.3,0,479.2,0z
		 M479,226.5c-38,0-68.8-30.8-68.8-68.8c0-38,30.8-68.8,68.8-68.8s68.8,30.8,68.8,68.8C547.8,195.6,517,226.5,479,226.5z"/>
	<polygon class="st0" points="183.8,7.4 133,7.4 0,309.5 98.5,309.5 158.4,153.2 218.4,309.5 316.9,309.5 	"/>
	<g>
		<g>
			<path class="st0" d="M227.9,364.4c0-10.4,7.6-15.3,14.3-15.3c3.8,0,6.8,1.4,8.8,3.5v-2.9h8.1v29.4H251v-3.3
				c-1.9,2.3-5.1,3.9-8.9,3.9C235.9,379.7,227.9,374.8,227.9,364.4z M251.2,364.4c0-4.4-3.2-7.9-7.5-7.9c-4.5,0-7.9,3.4-7.9,7.9
				c0,4.5,3.4,7.9,7.9,7.9C248.1,372.3,251.2,368.7,251.2,364.4z"/>
			<path class="st0" d="M263.6,367.6v-17.9h8.2v16.9c0,4.1,1.7,6.2,5.1,6.2c3.1,0,5.1-2.1,5.1-6.9v-16.2h8.1v29.4h-8v-3.4
				c-1.7,2.5-4.3,4-7.7,4C267.6,379.7,263.6,375.4,263.6,367.6z"/>
			<path class="st0" d="M293.6,369.2h8.1v0.2c0,2.4,1.6,3.3,3.6,3.3c2.3,0,3.2-0.9,3.2-2.6c0-1.8-3.6-2.1-7.2-3.4
				c-3.6-1.2-7.2-3.3-7.2-8.7c0-5.1,4.1-8.9,10.8-8.9c6.6,0,11.4,3.3,11.4,10.1h-7.8v-0.1c0-2.5-1.4-3.3-3.4-3.3
				c-2,0-2.9,1.1-2.9,2.4c0,1.7,3.5,2,7.1,3.2c3.5,1.2,7.1,3.4,7.1,8.6c0,5.1-3.7,9.7-10.9,9.7C297.6,379.7,293.6,376.2,293.6,369.2
				z"/>
			<path class="st0" d="M318.5,349.7h5v-6.9l8.1-4.4v11.3h5.5v7.2h-5.5v9.4c0,4.6,0.6,5.3,5.5,5.3v7.5h-1.2
				c-9.4,0-12.4-3.2-12.4-12.8v-9.4h-5V349.7z"/>
			<path class="st0" d="M341.4,349.7h8v4.8c1.5-3.1,4.1-4.8,8.1-4.8h3.2v7.8h-5.1c-4.3,0-6.2,2.2-6.2,7.7v13.9h-8.1V349.7z"/>
			<path class="st0" d="M362.6,364.4c0-10.4,7.6-15.3,14.3-15.3c3.8,0,6.8,1.4,8.8,3.5v-2.9h8.1v29.4h-8.1v-3.3
				c-1.9,2.3-5.1,3.9-8.9,3.9C370.5,379.7,362.6,374.8,362.6,364.4z M385.9,364.4c0-4.4-3.2-7.9-7.5-7.9c-4.5,0-7.9,3.4-7.9,7.9
				c0,4.5,3.4,7.9,7.9,7.9C382.7,372.3,385.9,368.7,385.9,364.4z"/>
			<path class="st0" d="M398.4,336.2h8.1v43h-8.1V336.2z"/>
			<g>
				<path class="st0" d="M415.2,337.1c2.9,0,4.9,2,4.9,4.9c0,2.9-2,4.8-4.9,4.8c-2.9,0-4.8-1.9-4.8-4.8
					C410.4,339.1,412.3,337.1,415.2,337.1z M411.2,349.7h8.1v29.4h-8.1V349.7z"/>
			</g>
			<path class="st0" d="M422.7,364.4c0-10.4,7.6-15.3,14.3-15.3c3.8,0,6.8,1.4,8.8,3.5v-2.9h8.1v29.4h-8.1v-3.3
				c-1.9,2.3-5.1,3.9-8.9,3.9C430.7,379.7,422.7,374.8,422.7,364.4z M446,364.4c0-4.4-3.2-7.9-7.5-7.9c-4.5,0-7.9,3.4-7.9,7.9
				c0,4.5,3.4,7.9,7.9,7.9C442.8,372.3,446,368.7,446,364.4z"/>
			<path class="st0" d="M458.4,349.7h8v3.3c1.9-2.4,4.8-3.9,8.1-3.9c6.9,0,11.1,4.5,11.1,12.1v17.9h-8.2v-16.9
				c0-3.9-1.8-6.2-5.4-6.2c-3.1,0-5.6,2.1-5.6,7.1v16.1h-8.1V349.7z"/>
		</g>
		<g>
			<path class="st0" d="M503.9,364.4c0-8.5,6.8-15.3,15.2-15.3c8.5,0,15.2,6.8,15.2,15.3s-6.8,15.3-15.2,15.3
				C510.6,379.7,503.9,372.9,503.9,364.4z M526.5,364.4c0-4.2-3.3-7.6-7.4-7.6c-4.2,0-7.4,3.5-7.4,7.6c0,4.2,3.2,7.6,7.4,7.6
				C523.2,372.1,526.5,368.6,526.5,364.4z"/>
			<path class="st0" d="M545.5,376.2v16.4h-8.1v-43h8.1v3.4c1.9-2.3,4.9-3.9,8.8-3.9c6.6,0,14.2,4.9,14.2,15.3
				c0,10.4-7.9,15.3-14.1,15.3C550.6,379.7,547.4,378.4,545.5,376.2z M560.7,364.4c0-4.5-3.4-7.9-7.9-7.9c-4.4,0-7.5,3.5-7.5,7.9
				c0,4.4,3.2,7.9,7.5,7.9C557.3,372.3,560.7,368.9,560.7,364.4z"/>
			<path class="st0" d="M571.2,364.4c0-8.5,6.8-15.3,15.2-15.3c8.8,0,15.2,6.9,15.2,15.4v2.6h-22.8c0.8,3.4,3.5,5.7,7.5,5.7
				c3.3,0,5.2-1.4,6.2-3.5h8.6c-2.4,6.5-7.2,10.4-14.8,10.4C577.1,379.7,571.2,372.9,571.2,364.4z M579.4,360.6h13.9
				c-1.1-2.9-3.7-4.4-6.8-4.4C583.3,356.2,580.7,358,579.4,360.6z"/>
			<path class="st0" d="M604.9,349.7h8v3.3c1.9-2.4,4.8-3.9,8.1-3.9c6.9,0,11.1,4.5,11.1,12.1v17.9H624v-16.9c0-3.9-1.8-6.2-5.4-6.2
				c-3.1,0-5.6,2.1-5.6,7.1v16.1h-8.1V349.7z"/>
		</g>
	</g>
</g>
</svg>
